<svg xmlns="http://www.w3.org/2000/svg" xmlns:xlink="http://www.w3.org/1999/xlink" viewBox="0,0,256,256" width="50px" height="50px" fill-rule="nonzero"><g fill="#ff0420" fill-rule="nonzero" stroke="none" stroke-width="1" stroke-linecap="butt" stroke-linejoin="miter" stroke-miterlimit="10" stroke-dasharray="" stroke-dashoffset="0" font-family="none" font-weight="none" font-size="none" text-anchor="none" style="mix-blend-mode: normal"><g transform="scale(5.12,5.12)"><path d="M45.103,24.995l3.195,-6.245l-5.892,-3.807l-0.354,-7.006l-7.006,-0.35l-3.81,-5.89l-6.242,3.2l-6.245,-3.196l-3.806,5.893l-7.005,0.354l-0.352,7.007l-5.89,3.81l3.2,6.242l-3.194,6.243l5.892,3.807l0.354,7.006l7.006,0.35l3.81,5.891l6.242,-3.2l6.245,3.195l3.806,-5.893l7.005,-0.354l0.352,-7.006l5.89,-3.81zM22.24,32.562l-6.82,-6.819l2.121,-2.121l4.732,4.731l10.202,-9.888l2.088,2.154z"></path></g></g></svg>